<?xml version="1.0" encoding="UTF-8"?>
<svg version="1.1" xmlns="http://www.w3.org/2000/svg" width="155" height="123">
<path d="M0 0 C1.62780647 -0.00956978 1.62780647 -0.00956978 3.28849792 -0.01933289 C4.44795425 -0.02044571 5.60741058 -0.02155853 6.80200195 -0.02270508 C8.01040237 -0.02603348 9.2188028 -0.02936188 10.46382141 -0.03279114 C13.01819479 -0.03784669 15.57257475 -0.04019989 18.12695312 -0.04003906 C22.00898308 -0.04221875 25.8907256 -0.06037075 29.77270508 -0.0793457 C32.2616364 -0.08228137 34.75056907 -0.084265 37.23950195 -0.08520508 C38.38883713 -0.09239059 39.5381723 -0.09957611 40.72233582 -0.10697937 C55.97381158 -0.06435936 70.25751613 3.27162823 81.6105957 14.13745117 C91.72963066 25.79929863 94.46166177 36.99666171 93.56420898 52.0378418 C92.40276416 63.61473756 84.85081445 72.75252007 76.3527832 80.14526367 C62.87746524 90.66828854 46.31007316 90.34436194 30.06176758 90.57495117 C19.89513416 90.82793116 12.48587327 91.92068089 4.4152832 98.39526367 C2.89741211 99.57475586 2.89741211 99.57475586 1.34887695 100.77807617 C0.36016602 101.55924805 -0.62854492 102.34041992 -1.6472168 103.14526367 C-3.42387463 104.53960273 -5.21446127 105.91648585 -7.0222168 107.27026367 C-7.77245117 107.8503418 -8.52268555 108.43041992 -9.2956543 109.02807617 C-12.45493469 110.52899676 -14.34007168 110.10480155 -17.6472168 109.14526367 C-18.89970182 106.64029364 -18.76096086 104.93673093 -18.74487305 102.13745117 C-18.74165039 101.15131836 -18.73842773 100.16518555 -18.73510742 99.14916992 C-18.72672852 98.11663086 -18.71834961 97.0840918 -18.7097168 96.02026367 C-18.70520508 94.97999023 -18.70069336 93.9397168 -18.69604492 92.86791992 C-18.68423632 90.29364405 -18.66776755 87.71948221 -18.6472168 85.14526367 C-19.54569336 84.8797168 -20.44416992 84.61416992 -21.36987305 84.34057617 C-31.27875039 80.72661137 -39.12822541 71.8106882 -43.5222168 62.45776367 C-48.23366445 51.67759702 -48.25010002 38.93897489 -44.02612305 27.98901367 C-37.6765446 14.89413233 -27.76629633 7.40601191 -14.47143555 2.05541992 C-9.67581608 0.50994366 -5.02152344 0.02018389 0 0 Z " fill="#5A65F3" transform="translate(52.647216796875,9.854736328125)"/>
<path d="M0 0 C1.62780647 -0.00956978 1.62780647 -0.00956978 3.28849792 -0.01933289 C4.44795425 -0.02044571 5.60741058 -0.02155853 6.80200195 -0.02270508 C8.01040237 -0.02603348 9.2188028 -0.02936188 10.46382141 -0.03279114 C13.01819479 -0.03784669 15.57257475 -0.04019989 18.12695312 -0.04003906 C22.00898308 -0.04221875 25.8907256 -0.06037075 29.77270508 -0.0793457 C32.2616364 -0.08228137 34.75056907 -0.084265 37.23950195 -0.08520508 C38.38883713 -0.09239059 39.5381723 -0.09957611 40.72233582 -0.10697937 C55.97381158 -0.06435936 70.25751613 3.27162823 81.6105957 14.13745117 C91.72963066 25.79929863 94.46166177 36.99666171 93.56420898 52.0378418 C92.40276416 63.61473756 84.85081445 72.75252007 76.3527832 80.14526367 C62.87746524 90.66828854 46.31007316 90.34436194 30.06176758 90.57495117 C19.89513416 90.82793116 12.48587327 91.92068089 4.4152832 98.39526367 C2.89741211 99.57475586 2.89741211 99.57475586 1.34887695 100.77807617 C0.36016602 101.55924805 -0.62854492 102.34041992 -1.6472168 103.14526367 C-3.42387463 104.53960273 -5.21446127 105.91648585 -7.0222168 107.27026367 C-7.77245117 107.8503418 -8.52268555 108.43041992 -9.2956543 109.02807617 C-12.45493469 110.52899676 -14.34007168 110.10480155 -17.6472168 109.14526367 C-18.89970182 106.64029364 -18.76096086 104.93673093 -18.74487305 102.13745117 C-18.74165039 101.15131836 -18.73842773 100.16518555 -18.73510742 99.14916992 C-18.72672852 98.11663086 -18.71834961 97.0840918 -18.7097168 96.02026367 C-18.70520508 94.97999023 -18.70069336 93.9397168 -18.69604492 92.86791992 C-18.68423632 90.29364405 -18.66776755 87.71948221 -18.6472168 85.14526367 C-19.54569336 84.8797168 -20.44416992 84.61416992 -21.36987305 84.34057617 C-31.27875039 80.72661137 -39.12822541 71.8106882 -43.5222168 62.45776367 C-48.23366445 51.67759702 -48.25010002 38.93897489 -44.02612305 27.98901367 C-37.6765446 14.89413233 -27.76629633 7.40601191 -14.47143555 2.05541992 C-9.67581608 0.50994366 -5.02152344 0.02018389 0 0 Z M-27.6472168 13.14526367 C-28.6990918 13.86713867 -29.7509668 14.58901367 -30.8347168 15.33276367 C-38.92125419 23.41930106 -43.65127976 33.06649648 -44.0847168 44.45776367 C-43.74264176 56.67269311 -39.22574442 65.61853548 -30.6628418 74.11401367 C-23.98644623 80.41506146 -23.98644623 80.41506146 -15.6472168 83.14526367 C-15.6472168 90.73526367 -15.6472168 98.32526367 -15.6472168 106.14526367 C-14.1622168 106.64026367 -14.1622168 106.64026367 -12.6472168 107.14526367 C-10.51716534 105.71716099 -8.61268753 104.27526422 -6.6472168 102.64526367 C11.69041805 88.00196747 11.69041805 88.00196747 24.1496582 87.80151367 C25.4387207 87.77186523 26.7277832 87.7422168 28.0559082 87.71166992 C29.40484901 87.68849112 30.75380825 87.66636169 32.1027832 87.64526367 C49.43347413 87.37131063 66.8221692 85.79914573 79.6887207 72.78198242 C89.07748426 61.56083936 91.39085906 50.54485871 90.3527832 36.14526367 C87.75854734 24.59622572 79.11927626 15.35415607 69.3527832 9.14526367 C58.96445677 4.21997479 49.7996164 2.98278884 38.4465332 2.90698242 C36.71119324 2.8948748 36.71119324 2.8948748 34.9407959 2.88252258 C32.49317915 2.86871443 30.04554341 2.85797772 27.59790039 2.85009766 C25.1154204 2.83860769 22.63296452 2.81820372 20.15063477 2.78857422 C2.42919187 2.57726738 -12.6401774 2.56516169 -27.6472168 13.14526367 Z " fill="#020205" transform="translate(52.647216796875,9.854736328125)"/>
</svg>
