<?xml version="1.0" encoding="UTF-8"?>
<svg version="1.1" xmlns="http://www.w3.org/2000/svg" width="222" height="195">
<path d="M0 0 C0.7960817 -0.0065712 1.59216339 -0.0131424 2.41236877 -0.01991272 C5.03476071 -0.03954334 7.65709548 -0.05128929 10.27954102 -0.0612793 C11.18205156 -0.06535482 12.08456211 -0.06943035 13.01442146 -0.07362938 C17.79737235 -0.09445287 22.58029492 -0.10876712 27.36328125 -0.11816406 C32.26510437 -0.12918303 37.16646789 -0.16354122 42.06812954 -0.20333576 C45.86980438 -0.2296867 49.67137308 -0.23787244 53.47313118 -0.24144554 C55.27776229 -0.24626885 57.08239006 -0.25775863 58.88693047 -0.27648354 C79.22534547 -0.47430513 96.64077172 3.63280433 111.80834961 18.13500977 C113.165634 19.47083691 114.50644932 20.82334013 115.84594727 22.17700195 C116.75473633 23.05291992 116.75473633 23.05291992 117.68188477 23.9465332 C124.21071976 30.76899305 129.66183092 41.78865089 130.84594727 51.17700195 C130.97743164 52.21211914 131.10891602 53.24723633 131.24438477 54.3137207 C132.9085595 71.12188551 129.06931853 85.68113716 118.84594727 99.17700195 C118.35739258 99.8421582 117.86883789 100.50731445 117.36547852 101.19262695 C107.00570723 114.18710551 89.86368385 122.44612459 73.58068848 124.45671082 C67.78871772 125.065336 62.07347304 125.32299682 56.25219727 125.3527832 C54.46182075 125.37596813 52.67145611 125.40008491 50.88110352 125.42504883 C48.11002417 125.4601351 45.33938989 125.48953365 42.56811523 125.50292969 C28.58687258 125.58339549 18.47339211 126.38954976 7.53344727 135.80200195 C6.25054439 136.86695106 4.96667078 137.93073173 3.68188477 138.9934082 C3.04605469 139.52466309 2.41022461 140.05591797 1.75512695 140.60327148 C-1.22055182 143.05611361 -4.27600793 145.4006211 -7.34155273 147.73950195 C-8.36635742 148.52454102 -9.39116211 149.30958008 -10.44702148 150.1184082 C-11.3403418 150.79774414 -12.23366211 151.47708008 -13.15405273 152.17700195 C-13.85788086 152.76868164 -14.56170898 153.36036133 -15.28686523 153.9699707 C-17.15405273 155.17700195 -17.15405273 155.17700195 -20.84155273 154.92700195 C-24.15405273 154.17700195 -24.15405273 154.17700195 -25.15405273 153.17700195 C-25.17804944 150.72800467 -25.1442462 148.29995328 -25.08374023 145.8527832 C-25.07283246 144.33392207 -25.06512369 142.81503523 -25.06030273 141.29614258 C-25.05245943 138.89535497 -25.02941433 136.50069642 -24.9519043 134.10107422 C-24.79586927 128.93642164 -24.83124288 124.1956807 -26.15405273 119.17700195 C-29.41851106 116.01317471 -32.9542336 114.7624538 -37.15405273 113.17700195 C-49.8200985 104.49028359 -59.97845431 90.54143483 -63.64233398 75.6105957 C-66.20440655 58.41928434 -64.26994196 42.37984344 -54.21655273 27.7980957 C-40.68596367 10.6029721 -22.0451723 0.08006939 0 0 Z " fill="#5967F4" transform="translate(84.154052734375,-0.177001953125)"/>
<path d="M0 0 C0.7960817 -0.0065712 1.59216339 -0.0131424 2.41236877 -0.01991272 C5.03476071 -0.03954334 7.65709548 -0.05128929 10.27954102 -0.0612793 C11.18205156 -0.06535482 12.08456211 -0.06943035 13.01442146 -0.07362938 C17.79737235 -0.09445287 22.58029492 -0.10876712 27.36328125 -0.11816406 C32.26510437 -0.12918303 37.16646789 -0.16354122 42.06812954 -0.20333576 C45.86980438 -0.2296867 49.67137308 -0.23787244 53.47313118 -0.24144554 C55.27776229 -0.24626885 57.08239006 -0.25775863 58.88693047 -0.27648354 C79.22534547 -0.47430513 96.64077172 3.63280433 111.80834961 18.13500977 C113.165634 19.47083691 114.50644932 20.82334013 115.84594727 22.17700195 C116.75473633 23.05291992 116.75473633 23.05291992 117.68188477 23.9465332 C124.21071976 30.76899305 129.66183092 41.78865089 130.84594727 51.17700195 C130.97743164 52.21211914 131.10891602 53.24723633 131.24438477 54.3137207 C132.9085595 71.12188551 129.06931853 85.68113716 118.84594727 99.17700195 C118.35739258 99.8421582 117.86883789 100.50731445 117.36547852 101.19262695 C107.00570723 114.18710551 89.86368385 122.44612459 73.58068848 124.45671082 C67.78871772 125.065336 62.07347304 125.32299682 56.25219727 125.3527832 C54.46182075 125.37596813 52.67145611 125.40008491 50.88110352 125.42504883 C48.11002417 125.4601351 45.33938989 125.48953365 42.56811523 125.50292969 C28.58687258 125.58339549 18.47339211 126.38954976 7.53344727 135.80200195 C6.25054439 136.86695106 4.96667078 137.93073173 3.68188477 138.9934082 C3.04605469 139.52466309 2.41022461 140.05591797 1.75512695 140.60327148 C-1.22055182 143.05611361 -4.27600793 145.4006211 -7.34155273 147.73950195 C-8.36635742 148.52454102 -9.39116211 149.30958008 -10.44702148 150.1184082 C-11.3403418 150.79774414 -12.23366211 151.47708008 -13.15405273 152.17700195 C-13.85788086 152.76868164 -14.56170898 153.36036133 -15.28686523 153.9699707 C-17.15405273 155.17700195 -17.15405273 155.17700195 -20.84155273 154.92700195 C-24.15405273 154.17700195 -24.15405273 154.17700195 -25.15405273 153.17700195 C-25.17804944 150.72800467 -25.1442462 148.29995328 -25.08374023 145.8527832 C-25.07283246 144.33392207 -25.06512369 142.81503523 -25.06030273 141.29614258 C-25.05245943 138.89535497 -25.02941433 136.50069642 -24.9519043 134.10107422 C-24.79586927 128.93642164 -24.83124288 124.1956807 -26.15405273 119.17700195 C-29.41851106 116.01317471 -32.9542336 114.7624538 -37.15405273 113.17700195 C-49.8200985 104.49028359 -59.97845431 90.54143483 -63.64233398 75.6105957 C-66.20440655 58.41928434 -64.26994196 42.37984344 -54.21655273 27.7980957 C-40.68596367 10.6029721 -22.0451723 0.08006939 0 0 Z M-50.28686523 28.9074707 C-59.5440945 42.7933146 -63.30591566 57.5728516 -60.69311523 74.09106445 C-60.00959639 76.55977371 -59.17144248 78.82621505 -58.15405273 81.17700195 C-57.55077148 82.60399414 -57.55077148 82.60399414 -56.93530273 84.05981445 C-49.98164735 99.16469922 -39.19882388 109.28955307 -24.15405273 116.17700195 C-23.49405273 116.17700195 -22.83405273 116.17700195 -22.15405273 116.17700195 C-22.15405273 127.72700195 -22.15405273 139.27700195 -22.15405273 151.17700195 C-17.1195686 151.33990961 -17.1195686 151.33990961 -13.69311523 148.7199707 C-13.06405273 148.18944092 -12.43499023 147.65891113 -11.78686523 147.11230469 C-11.12428711 146.53552979 -10.46170898 145.95875488 -9.77905273 145.36450195 C-8.35690778 144.16901135 -6.93237174 142.97636012 -5.50561523 141.78637695 C-4.7840625 141.18245117 -4.06250977 140.57852539 -3.3190918 139.95629883 C-0.00836663 137.23544125 3.39731022 134.65715606 6.84594727 132.11450195 C7.43166504 131.67452881 8.01738281 131.23455566 8.62084961 130.78125 C15.29604888 125.88868603 21.97971781 122.088866 30.40820312 122.01928711 C31.75627296 122.00389389 31.75627296 122.00389389 33.13157654 121.9881897 C34.09821732 121.98088837 35.06485809 121.97358704 36.06079102 121.96606445 C38.13046002 121.93796907 40.20012136 121.90930447 42.26977539 121.88012695 C45.51464399 121.83910521 48.75937369 121.80219902 52.00439453 121.77563477 C73.72320317 121.61652554 73.72320317 121.61652554 94.03344727 114.48950195 C95.0427832 113.96622314 95.0427832 113.96622314 96.07250977 113.43237305 C110.62730533 105.65561448 121.74960922 93.50979452 126.65844727 77.5324707 C129.39909786 64.83792942 128.78285564 52.18443525 123.84594727 40.17700195 C123.46825195 39.25532227 123.09055664 38.33364258 122.70141602 37.3840332 C115.23646569 21.75499823 100.41776168 11.39610782 84.47094727 5.73950195 C77.44727166 3.48261483 70.38002917 3.05575443 63.04736328 2.98413086 C62.31272354 2.97595337 61.5780838 2.96777588 60.82118225 2.95935059 C58.41408038 2.93474792 56.0070367 2.91804029 53.59985352 2.90356445 C52.35187642 2.89557894 52.35187642 2.89557894 51.07868767 2.8874321 C46.66949261 2.86080148 42.2603248 2.84139999 37.85107422 2.8269043 C34.23850906 2.81361655 30.62651563 2.78584525 27.01416016 2.74487305 C22.61520846 2.69501061 18.21677081 2.67071893 13.81754875 2.66367722 C12.15968121 2.657051 10.50182117 2.64206134 8.84411812 2.61778641 C-14.46873346 2.29602925 -35.58091238 10.08061897 -50.28686523 28.9074707 Z " fill="#05050B" transform="translate(84.154052734375,-0.177001953125)"/>
<path d="M0 0 C0.680625 -0.00515625 1.36125 -0.0103125 2.0625 -0.015625 C4 0.25 4 0.25 7 2.25 C6.67 3.57 6.34 4.89 6 6.25 C5.071875 5.899375 4.14375 5.54875 3.1875 5.1875 C0.0197047 3.92617372 0.0197047 3.92617372 -3 5.25 C-3 8.22 -3 11.19 -3 14.25 C1.7897321 14.48428313 1.7897321 14.48428313 6 12.25 C6.6875 14.0625 6.6875 14.0625 7 16.25 C6.0625 18 6.0625 18 4 19.25 C-2.77647059 20.00294118 -2.77647059 20.00294118 -6.4375 17.75 C-8.58445294 14.3148753 -9.08003416 11.27571836 -9 7.25 C-7.6725631 2.1614919 -5.33408729 -0.04040975 0 0 Z " fill="#010101" transform="translate(40,163.75)"/>
<path d="M0 0 C2 1.375 2 1.375 3 3 C3 3.66 3 4.32 3 5 C1.68 5.33 0.36 5.66 -1 6 C-1 5.34 -1 4.68 -1 4 C-4.81813447 4.27540704 -4.81813447 4.27540704 -8 6 C-8.04092937 8.33297433 -8.04241723 10.66705225 -8 13 C-6.30287793 14.30859649 -6.30287793 14.30859649 -4 15 C-1.37612865 13.60907108 -1.37612865 13.60907108 1 12 C1.66 12.33 2.32 12.66 3 13 C2.6875 14.875 2.6875 14.875 2 17 C-1.75047482 19.50031654 -3.55856266 19.53603554 -8 19 C-11.07504636 16.97177793 -12.66581629 15.50246824 -13.48046875 11.83984375 C-13.73957582 7.64511033 -13.33216044 5.50862067 -11 1.9375 C-6.87741392 -0.72500351 -4.84692237 -0.62540934 0 0 Z " fill="#010101" transform="translate(97,164)"/>
<path d="M0 0 C1.32 0 2.64 0 4 0 C4.33 1.98 4.66 3.96 5 6 C5.763125 5.79375 6.52625 5.5875 7.3125 5.375 C10 5 10 5 13 7 C13.29296875 10.0390625 13.29296875 10.0390625 13.1875 13.625 C13.16042969 14.81351563 13.13335937 16.00203125 13.10546875 17.2265625 C13.07066406 18.14179688 13.03585938 19.05703125 13 20 C11.68 20 10.36 20 9 20 C9 16.37 9 12.74 9 9 C7.68 9 6.36 9 5 9 C4.67 12.63 4.34 16.26 4 20 C2.68 20 1.36 20 0 20 C0 13.4 0 6.8 0 0 Z " fill="#000000" transform="translate(102,163)"/>
<path d="M0 0 C1.32 0 2.64 0 4 0 C4.33 1.98 4.66 3.96 5 6 C5.763125 5.773125 6.52625 5.54625 7.3125 5.3125 C10 5 10 5 11.65625 6.09375 C13.58030542 8.82322396 13.29389039 10.88939788 13.1875 14.1875 C13.16042969 15.27417969 13.13335937 16.36085937 13.10546875 17.48046875 C13.07066406 18.31191406 13.03585938 19.14335937 13 20 C11.68 20 10.36 20 9 20 C8.67 16.7 8.34 13.4 8 10 C7.01 10 6.02 10 5 10 C4.67 13.3 4.34 16.6 4 20 C2.68 20 1.36 20 0 20 C0 13.4 0 6.8 0 0 Z " fill="#040404" transform="translate(50,163)"/>
<path d="M0 0 C2.1519437 3.22791555 2.20086443 4.28400809 2 8 C-0.97 8 -3.94 8 -7 8 C-7 8.66 -7 9.32 -7 10 C-5.88625 9.79375 -4.7725 9.5875 -3.625 9.375 C-2.42875 9.25125 -1.2325 9.1275 0 9 C0.66 9.66 1.32 10.32 2 11 C0.9375 12.5 0.9375 12.5 -1 14 C-4.38318857 14.36248449 -6.86784865 14.58433618 -9.9375 13 C-11.6202561 9.83245911 -11.54468716 6.5086342 -11 3 C-7.87521953 -1.68717071 -5.14026869 -1.31240903 0 0 Z M-6 3 C-6.33 3.66 -6.66 4.32 -7 5 C-5.35 5 -3.7 5 -2 5 C-2 4.34 -2 3.68 -2 3 C-3.32 3 -4.64 3 -6 3 Z " fill="#010101" transform="translate(165,169)"/>
<path d="M0 0 C2.18994248 3.28491373 2.35277339 4.83095639 2.625 8.6875 C2.69976562 9.68136719 2.77453125 10.67523438 2.8515625 11.69921875 C2.90054688 12.45847656 2.94953125 13.21773437 3 14 C1.20866022 14.05391993 -0.58313899 14.09275571 -2.375 14.125 C-3.37273437 14.14820313 -4.37046875 14.17140625 -5.3984375 14.1953125 C-8 14 -8 14 -10 12 C-10.125 9.375 -10.125 9.375 -10 7 C-7.69 6.01 -5.38 5.02 -3 4 C-4.98 4 -6.96 4 -9 4 C-9.33 3.01 -9.66 2.02 -10 1 C-6.43904118 -1.32831923 -4.04274788 -1.14251571 0 0 Z M-6 8 C-6 8.99 -6 9.98 -6 11 C-5.01 11 -4.02 11 -3 11 C-2.67 9.68 -2.34 8.36 -2 7 C-3.36893239 6.94729537 -3.36893239 6.94729537 -6 8 Z " fill="#010101" transform="translate(128,169)"/>
<path d="M0 0 C-0.33 1.32 -0.66 2.64 -1 4 C-2.65 4 -4.3 4 -6 4 C-4.02 4.66 -2.04 5.32 0 6 C0.6875 8.3125 0.6875 8.3125 1 11 C0 12.8125 0 12.8125 -2 14 C-5.5625 14.375 -5.5625 14.375 -9 14 C-9.66 13.01 -10.32 12.02 -11 11 C-8 9 -8 9 -5.8125 9.375 C-5.214375 9.58125 -4.61625 9.7875 -4 10 C-4.928125 9.566875 -4.928125 9.566875 -5.875 9.125 C-8 8 -8 8 -10 6 C-10.3125 3.5 -10.3125 3.5 -10 1 C-6.1496895 -1.56687367 -4.41430237 -0.83288724 0 0 Z " fill="#020202" transform="translate(190,169)"/>
<path d="M0 0 C0 0.99 0 1.98 0 3 C1.32 3.33 2.64 3.66 4 4 C4 4.99 4 5.98 4 7 C2.68 7 1.36 7 0 7 C0 9.31 0 11.62 0 14 C1.32 14 2.64 14 4 14 C4.33 14.99 4.66 15.98 5 17 C4 18 4 18 1.0625 18.25 C0.051875 18.1675 -0.95875 18.085 -2 18 C-5.08768071 13.36847894 -5 8.42751158 -5 3 C-2.64285714 0 -2.64285714 0 0 0 Z " fill="#010101" transform="translate(148,165)"/>
<path d="M0 0 C0 0.99 0 1.98 0 3 C1.32 3.33 2.64 3.66 4 4 C4 4.99 4 5.98 4 7 C2.68 7 1.36 7 0 7 C0.33 9.31 0.66 11.62 1 14 C1.99 14 2.98 14 4 14 C4 15.32 4 16.64 4 18 C1.125 18.125 1.125 18.125 -2 18 C-4 16 -4 16 -4.1953125 13.8359375 C-4.17210938 13.02382812 -4.14890625 12.21171875 -4.125 11.375 C-4.10695313 10.55773437 -4.08890625 9.74046875 -4.0703125 8.8984375 C-4.04710938 8.27195313 -4.02390625 7.64546875 -4 7 C-4.66 7 -5.32 7 -6 7 C-5.37162381 3.35541809 -4.14650034 0 0 0 Z " fill="#010101" transform="translate(78,165)"/>
<path d="M0 0 C0.33 0.99 0.66 1.98 1 3 C2.32 3 3.64 3 5 3 C5 4.32 5 5.64 5 7 C4.01 7 3.02 7 2 7 C2 9.31 2 11.62 2 14 C3.32 14.33 4.64 14.66 6 15 C5.67 15.99 5.34 16.98 5 18 C2.69 17.67 0.38 17.34 -2 17 C-2.04898438 16.39671875 -2.09796875 15.7934375 -2.1484375 15.171875 C-2.22320312 14.37265625 -2.29796875 13.5734375 -2.375 12.75 C-2.44460937 11.96109375 -2.51421875 11.1721875 -2.5859375 10.359375 C-3.01507113 7.914123 -3.78600638 6.15163097 -5 4 C-4.01 3.67 -3.02 3.34 -2 3 C-2 2.34 -2 1.68 -2 1 C-1.34 0.67 -0.68 0.34 0 0 Z " fill="#010101" transform="translate(136,165)"/>
<path d="M0 0 C0.33 0.66 0.66 1.32 1 2 C0.07421875 4.21484375 0.07421875 4.21484375 -1.3125 6.9375 C-7.69234875 20.61873121 -7.97718249 36.19347742 -2.97265625 50.328125 C-2.65167969 51.20984375 -2.33070312 52.0915625 -2 53 C-1.64601341 54.32799939 -1.3032094 55.65949526 -1 57 C-6.55717046 52.5013382 -8.47065251 43.798763 -9.22387695 36.97045898 C-9.98415857 23.3102356 -7.36900113 11.68771901 0 0 Z " fill="#A240D8" transform="translate(32,32)"/>
<path d="M0 0 C0.66 0.33 1.32 0.66 2 1 C4.09821215 0.60061233 4.09821215 0.60061233 6 0 C6.33 0.66 6.66 1.32 7 2 C6.67 2.66 6.34 3.32 6 4 C5.01 4.33 4.02 4.66 3 5 C2.67 7.97 2.34 10.94 2 14 C0.68 14.33 -0.64 14.66 -2 15 C-3 14 -3 14 -3.09765625 11.05859375 C-3.08605469 9.86363281 -3.07445312 8.66867188 -3.0625 7.4375 C-3.05347656 6.23996094 -3.04445312 5.04242188 -3.03515625 3.80859375 C-3.02355469 2.88175781 -3.01195312 1.95492187 -3 1 C-2.01 0.67 -1.02 0.34 0 0 Z " fill="#010101" transform="translate(172,168)"/>
<path d="M0 0 C0.99 0.33 1.98 0.66 3 1 C3 5.62 3 10.24 3 15 C1.68 15 0.36 15 -1 15 C-1.02685412 12.68756208 -1.04632841 10.3750373 -1.0625 8.0625 C-1.07410156 6.77472656 -1.08570312 5.48695313 -1.09765625 4.16015625 C-1 1 -1 1 0 0 Z " fill="#010101" transform="translate(67,168)"/>
<path d="M0 0 C1.32 0 2.64 0 4 0 C4 1.32 4 2.64 4 4 C2.68 4 1.36 4 0 4 C0 2.68 0 1.36 0 0 Z " fill="#000000" transform="translate(66,163)"/>
</svg>
